PathFileType	4	(X/Y/Z)	C:\Users\WrightLab\Desktop\Jo\P2_Trial11.trc
DataRate	CameraRate	NumFrames	NumMarkers	Units	OrigDataRate	OrigDataStartFrame	OrigNumFrames
100.00	100.00	      62	19	mm	100.00	1	      1163
Frame#	Time	Headset_Front			Headset_Back			Headset_Left			Headset_Right			Left_Shoulder			Right_Shoulder			Sternum			C7			Left Elbow			Right Elbow			Left Wrist			Right Wrist			Left ASIS			Right ASIS			S2			Left Knee			Right Knee			Left Ankle			Right Ankle			
		X1	Y1	Z1	X2	Y2	Z2	X3	Y3	Z3	X4	Y4	Z4	X5	Y5	Z5	X6	Y6	Z6	X7	Y7	Z7	X8	Y8	Z8	X9	Y9	Z9	X10	Y10	Z10	X11	Y11	Z11	X12	Y12	Z12	X13	Y13	Z13	X14	Y14	Z14	X15	Y15	Z15	X16	Y16	Z16	X17	Y17	Z17	X18	Y18	Z18	X19	Y19	Z19	

1	0.000																																											-10.94922	1059.68127	2275.55420													
2	0.010																																											-10.57337	1059.77112	2276.57373													
3	0.020																																											-10.12570	1060.03845	2277.87402													
4	0.030																																											-9.60369	1060.23865	2279.22217													
5	0.040																																											-9.22707	1060.50146	2280.49854													
6	0.050																																											-8.61357	1060.03894	2280.98706													
7	0.060																																											-8.26334	1059.81848	2282.49927													
8	0.070																																											-7.50968	1059.45483	2284.05029													
9	0.080																																											-6.97916	1059.32251	2285.55054													
10	0.090																																											-6.52241	1059.15747	2286.48242													
11	0.100																																											-6.60087	1059.02686	2288.51880													
12	0.110																																											-6.33832	1058.96460	2290.41479													
13	0.120																																											-5.87111	1058.79688	2291.80420													
14	0.130																																											-6.04096	1058.62573	2293.49976													
15	0.140																																											-6.71036	1058.74036	2295.47046													
16	0.150																																											-7.26494	1058.76416	2297.77271													
17	0.160																																											-7.32458	1058.74756	2298.99927													
18	0.170																																											-7.61900	1058.16528	2300.87915													
19	0.180																																											-8.30810	1058.08777	2302.78174													
20	0.190																																											-8.97388	1057.51929	2304.79907													
21	0.200																																											-9.57546	1057.12891	2306.49194													
22	0.210																																											-10.39182	1056.57275	2308.73193													
23	0.220																																											-11.72808	1056.51453	2311.34424													
24	0.230																																											-12.13582	1055.81726	2312.85376													
25	0.240																																											-12.67345	1055.07910	2314.93262													
26	0.250																																											-13.72987	1054.62781	2317.67432													
27	0.260																																											-14.21851	1054.05237	2319.78906													
28	0.270																																											-14.96852	1053.30298	2322.36987													
29	0.280																																											-15.90541	1052.79712	2325.27441													
30	0.290																																											-16.44402	1051.91479	2327.17871													
31	0.300																																											-17.88343	1051.51147	2330.42969													
32	0.310																																											-18.61223	1050.56116	2332.75024													
33	0.320																																											-19.38774	1049.64319	2335.50684													
34	0.330																																											-21.27711	1049.31165	2339.35742													
35	0.340																																											-22.63204	1049.05652	2342.32959													
36	0.350																																											-23.65735	1048.40015	2344.71509													
37	0.360																																											-26.09333	1048.29175	2349.06079													
38	0.370																																											-27.93331	1047.87634	2352.33887													
39	0.380																																											-29.66182	1047.27954	2355.45361													
40	0.390																																											-31.35679	1046.58447	2358.32471													
41	0.400																																											-33.69644	1046.22229	2362.13965													
42	0.410																																											-36.26004	1045.54224	2366.33618													
43	0.420																																											-38.77374	1044.86743	2370.24023													
44	0.430																																											-41.22258	1043.91675	2374.04004													
45	0.440																																											-43.86523	1042.96045	2377.99219													
46	0.450																																											-46.61989	1041.84583	2382.04858													
47	0.460																																											-49.46249	1040.49890	2385.98267													
48	0.470																																											-52.27415	1039.15576	2389.86377													
49	0.480																																											-55.15775	1037.34192	2393.80908													
50	0.490																																											-58.23833	1035.18506	2398.19238													
51	0.500																																											-61.22960	1033.25842	2402.04175													
52	0.510																																											-64.98397	1031.60315	2406.73706													
53	0.520																																											-68.82186	1029.98779	2411.69482													
54	0.530																																											-72.01963	1027.73914	2415.48804													
55	0.540																																											-75.77393	1025.42053	2420.19995													
56	0.550																																											-79.99530	1023.91254	2425.33423													
57	0.560																																											-83.78520	1021.50830	2429.76514													
58	0.570																																											-88.18855	1019.61987	2434.64380													
59	0.580																																											-92.15851	1017.74762	2439.74634													
60	0.590																																											-96.82227	1016.18237	2444.64429													
61	0.600																																											-101.16754	1014.15045	2449.63574													
62	0.610																																											-105.70464	1012.62463	2454.28223													
